<svg version="1.1" viewBox="0.0 0.0 772.6115485564304 747.6351706036745" fill="none" stroke="none" stroke-linecap="square" stroke-miterlimit="10" xmlns:xlink="http://www.w3.org/1999/xlink" xmlns="http://www.w3.org/2000/svg"><clipPath id="p.0"><path d="m0 0l772.6116 0l0 747.6352l-772.6116 0l0 -747.6352z" clip-rule="nonzero"/></clipPath><g clip-path="url(#p.0)"><path fill="#000000" fill-opacity="0.0" d="m0 0l772.6116 0l0 747.6352l-772.6116 0z" fill-rule="evenodd"/><path fill="#ffffff" d="m26.305775 373.81628l0 0c0 -198.82253 161.17749 -360.0 360.0 -360.0l0 0c95.477936 0 187.04535 37.928463 254.55841 105.44156c67.51312 67.5131 105.44159 159.0805 105.44159 254.55844l0 0c0 198.82251 -161.17749 360.0 -360.0 360.0l0 0c-198.82253 0 -360.0 -161.17749 -360.0 -360.0z" fill-rule="evenodd"/><path stroke="#ffffff" stroke-width="1.0" stroke-linejoin="round" stroke-linecap="butt" d="m26.305775 373.81628l0 0c0 -198.82253 161.17749 -360.0 360.0 -360.0l0 0c95.477936 0 187.04535 37.928463 254.55841 105.44156c67.51312 67.5131 105.44159 159.0805 105.44159 254.55844l0 0c0 198.82251 -161.17749 360.0 -360.0 360.0l0 0c-198.82253 0 -360.0 -161.17749 -360.0 -360.0z" fill-rule="evenodd"/><path fill="#000000" d="m287.8819 469.8281l0 -106.5827l0 0c0 -58.863983 44.066467 -106.58267 98.4252 -106.58267c54.358734 0 98.42517 47.71869 98.42517 106.58267l0 106.5827z" fill-rule="evenodd"/><path stroke="#000000" stroke-width="1.0" stroke-linejoin="round" stroke-linecap="butt" d="m287.8819 469.8281l0 -106.5827l0 0c0 -58.863983 44.066467 -106.58267 98.4252 -106.58267c54.358734 0 98.42517 47.71869 98.42517 106.58267l0 106.5827z" fill-rule="evenodd"/><path fill="#000000" d="m459.30426 252.82474l0 0c-1.2350464 -1.2350464 -1.2350464 -3.2374725 0 -4.472534l17.984161 -17.984161c0.59310913 -0.5930939 1.3974915 -0.9262848 2.236267 -0.9262848c0.83877563 0 1.643158 0.33319092 2.236267 0.9262848l8.944794 8.944794c1.2350464 1.2350616 1.2350464 3.2374725 0 4.472534l-17.984161 17.984161c-1.2350464 1.2350464 -3.2374878 1.2350464 -4.472534 0z" fill-rule="evenodd"/><path stroke="#000000" stroke-width="1.0" stroke-linejoin="round" stroke-linecap="butt" d="m459.30426 252.82474l0 0c-1.2350464 -1.2350464 -1.2350464 -3.2374725 0 -4.472534l17.984161 -17.984161c0.59310913 -0.5930939 1.3974915 -0.9262848 2.236267 -0.9262848c0.83877563 0 1.643158 0.33319092 2.236267 0.9262848l8.944794 8.944794c1.2350464 1.2350616 1.2350464 3.2374725 0 4.472534l-17.984161 17.984161c-1.2350464 1.2350464 -3.2374878 1.2350464 -4.472534 0z" fill-rule="evenodd"/><path fill="#000000" d="m288.627 230.36804l0 0c1.2350464 -1.2350464 3.2374573 -1.2350464 4.472534 0l17.984161 17.984161c0.5930786 0.5930939 0.92626953 1.3975067 0.92626953 2.236267c0 0.8387604 -0.33319092 1.6431732 -0.92626953 2.236267l-8.944794 8.944794c-1.2350769 1.2350464 -3.2374878 1.2350464 -4.472534 0l-17.984161 -17.984161c-1.2350769 -1.2350616 -1.2350769 -3.2374725 0 -4.472534z" fill-rule="evenodd"/><path stroke="#000000" stroke-width="1.0" stroke-linejoin="round" stroke-linecap="butt" d="m288.627 230.36804l0 0c1.2350464 -1.2350464 3.2374573 -1.2350464 4.472534 0l17.984161 17.984161c0.5930786 0.5930939 0.92626953 1.3975067 0.92626953 2.236267c0 0.8387604 -0.33319092 1.6431732 -0.92626953 2.236267l-8.944794 8.944794c-1.2350769 1.2350464 -3.2374878 1.2350464 -4.472534 0l-17.984161 -17.984161c-1.2350769 -1.2350616 -1.2350769 -3.2374725 0 -4.472534z" fill-rule="evenodd"/><path fill="#000000" d="m379.9874 228.13179l0 0c-1.7453003 0 -3.1601562 -1.414856 -3.1601562 -3.1601562l0 -25.427704c0 -0.8381195 0.33294678 -1.641922 0.92559814 -2.2345734c0.59262085 -0.59265137 1.3964233 -0.92559814 2.234558 -0.92559814l12.640289 0c1.7453308 0 3.1601868 1.414856 3.1601868 3.1601715l0 25.427704c0 1.7453003 -1.414856 3.1601562 -3.1601868 3.1601562z" fill-rule="evenodd"/><path stroke="#000000" stroke-width="1.0" stroke-linejoin="round" stroke-linecap="butt" d="m379.9874 228.13179l0 0c-1.7453003 0 -3.1601562 -1.414856 -3.1601562 -3.1601562l0 -25.427704c0 -0.8381195 0.33294678 -1.641922 0.92559814 -2.2345734c0.59262085 -0.59265137 1.3964233 -0.92559814 2.234558 -0.92559814l12.640289 0c1.7453308 0 3.1601868 1.414856 3.1601868 3.1601715l0 25.427704c0 1.7453003 -1.414856 3.1601562 -3.1601868 3.1601562z" fill-rule="evenodd"/><path fill="#000000" d="m252.71654 452.42258l267.1811 0l0 31.748016l-267.1811 0z" fill-rule="evenodd"/><path stroke="#000000" stroke-width="1.0" stroke-linejoin="round" stroke-linecap="butt" d="m252.71654 452.42258l267.1811 0l0 31.748016l-267.1811 0z" fill-rule="evenodd"/><path fill="#000000" d="m423.0525 472.16376l27.748047 0l0 79.08661l-27.748047 0zm3.4685059 3.4685059l0 72.1496l20.811035 0l0 -72.1496z" fill-rule="evenodd"/><path stroke="#000000" stroke-width="12.0" stroke-linejoin="round" stroke-linecap="butt" d="m423.0525 472.16376l27.748047 0l0 79.08661l-27.748047 0zm3.4685059 3.4685059l0 72.1496l20.811035 0l0 -72.1496z" fill-rule="evenodd"/><path fill="#000000" d="m319.0525 472.16376l27.748047 0l0 79.08661l-27.748047 0zm3.4685059 3.4685059l0 72.1496l20.811035 0l0 -72.1496z" fill-rule="evenodd"/><path stroke="#000000" stroke-width="12.0" stroke-linejoin="round" stroke-linecap="butt" d="m319.0525 472.16376l27.748047 0l0 79.08661l-27.748047 0zm3.4685059 3.4685059l0 72.1496l20.811035 0l0 -72.1496z" fill-rule="evenodd"/></g></svg>